<svg width="359" height="109" viewBox="0 0 359 109" fill="none" xmlns="http://www.w3.org/2000/svg">
<path d="M27.713 26.755C34.6005 26.755 39.7118 29.0025 43.0468 33.4975C46.4543 37.92 48.158 44.01 48.158 51.7675V82H34.673V52.7462C34.673 47.5987 33.8393 43.8287 32.1718 41.4362C30.5043 39.0437 27.858 37.8475 24.233 37.8475C19.9555 37.8475 16.4393 39.4062 13.6843 42.5237V82H0.199219V0.4375H13.6843V31.105C15.8593 29.7275 18.0705 28.6762 20.318 27.9512C22.5655 27.1537 25.0305 26.755 27.713 26.755ZM84.8917 83.088C79.1642 83.088 74.198 81.819 69.993 79.281C65.788 76.744 62.5617 73.336 60.3142 69.059C58.0667 64.781 56.943 60.069 56.943 54.9212C56.943 49.7737 58.0667 45.025 60.3142 40.675C62.5617 36.325 65.788 32.8812 69.993 30.3437C74.198 27.8062 79.1642 26.5375 84.8917 26.5375C90.6192 26.5375 95.5855 27.8062 99.7905 30.3437C103.995 32.8812 107.221 36.325 109.469 40.675C111.716 45.025 112.84 49.7737 112.84 54.9212C112.84 60.069 111.716 64.781 109.469 69.059C107.221 73.336 103.995 76.744 99.7905 79.281C95.5855 81.819 90.6192 83.088 84.8917 83.088ZM84.8917 71.995C89.3142 71.995 92.758 70.436 95.2225 67.319C97.7605 64.201 99.0295 60.069 99.0295 54.9212C99.0295 49.7012 97.7605 45.5325 95.2225 42.415C92.758 39.225 89.3142 37.63 84.8917 37.63C80.4692 37.63 76.9892 39.225 74.4517 42.415C71.9867 45.5325 70.7542 49.7012 70.7542 54.9212C70.7542 60.069 71.9867 64.201 74.4517 67.319C76.9892 70.436 80.4692 71.995 84.8917 71.995ZM150.61 26.755C155.758 26.755 160.18 28.0237 163.878 30.5612C167.575 33.0987 170.366 36.5062 172.251 40.7837C174.136 45.0612 175.079 49.7737 175.079 54.9212C175.079 60.069 174.136 64.781 172.251 69.059C170.366 73.336 167.575 76.744 163.878 79.281C160.18 81.819 155.758 83.088 150.61 83.088C147.348 83.088 144.556 82.725 142.236 82C139.989 81.347 137.814 80.26 135.711 78.737V108.318H122.226V27.625H133.101L134.515 32.6275C136.835 30.67 139.264 29.22 141.801 28.2775C144.339 27.2625 147.275 26.755 150.61 26.755ZM148.544 71.995C152.531 71.995 155.649 70.436 157.896 67.319C160.144 64.201 161.268 60.069 161.268 54.9212C161.268 49.7737 160.144 45.6412 157.896 42.5237C155.649 39.4062 152.531 37.8475 148.544 37.8475C144.049 37.8475 140.678 39.37 138.43 42.415C136.183 45.46 135.059 49.6287 135.059 54.9212C135.059 60.214 136.183 64.382 138.43 67.427C140.678 70.472 144.049 71.995 148.544 71.995ZM212.844 26.755C217.992 26.755 222.414 28.0237 226.112 30.5612C229.809 33.0987 232.6 36.5062 234.485 40.7837C236.37 45.0612 237.313 49.7737 237.313 54.9212C237.313 60.069 236.37 64.781 234.485 69.059C232.6 73.336 229.809 76.744 226.112 79.281C222.414 81.819 217.992 83.088 212.844 83.088C209.582 83.088 206.79 82.725 204.47 82C202.223 81.347 200.048 80.26 197.945 78.737V108.318H184.46V27.625H195.335L196.749 32.6275C199.069 30.67 201.498 29.22 204.035 28.2775C206.573 27.2625 209.509 26.755 212.844 26.755ZM210.778 71.995C214.765 71.995 217.883 70.436 220.13 67.319C222.378 64.201 223.502 60.069 223.502 54.9212C223.502 49.7737 222.378 45.6412 220.13 42.5237C217.883 39.4062 214.765 37.8475 210.778 37.8475C206.283 37.8475 202.912 39.37 200.664 42.415C198.417 45.46 197.293 49.6287 197.293 54.9212C197.293 60.214 198.417 64.382 200.664 67.427C202.912 70.472 206.283 71.995 210.778 71.995ZM246.694 5.875H260.179V19.36H246.694V5.875ZM246.694 27.625H260.179V82H246.694V27.625ZM299.028 83.088C292.721 83.088 287.32 81.819 282.825 79.281C278.402 76.671 275.067 73.227 272.82 68.95C270.645 64.6 269.557 59.779 269.557 54.4862C269.557 49.4112 270.608 44.7712 272.711 40.5662C274.813 36.3612 277.858 33.0262 281.846 30.5612C285.833 28.0237 290.582 26.755 296.092 26.755C301.167 26.755 305.445 27.8062 308.925 29.9087C312.477 32.0112 315.123 34.8387 316.863 38.3912C318.676 41.9437 319.582 45.9312 319.582 50.3537C319.582 52.5287 319.292 54.9937 318.712 57.749H283.586C284.311 62.534 286.196 66.122 289.241 68.515C292.286 70.835 295.947 71.995 300.225 71.995C306.097 71.995 311.535 70.509 316.537 67.536L317.19 78.955C314.87 80.187 312.151 81.202 309.033 82C305.988 82.725 302.653 83.088 299.028 83.088ZM305.88 48.6137C305.88 45.7862 305.082 43.285 303.487 41.11C301.892 38.935 299.427 37.8475 296.092 37.8475C292.757 37.8475 290.075 38.8262 288.045 40.7837C286.015 42.7412 284.637 45.3512 283.912 48.6137H305.88ZM328.788 27.625H341.403L341.729 33.3887C343.324 31.5762 345.354 29.9812 347.819 28.6037C350.356 27.2262 353.003 26.5375 355.758 26.5375C356.628 26.5375 357.425 26.61 358.15 26.755L357.171 40.0225C355.794 39.66 354.235 39.4787 352.495 39.4787C350.248 39.4787 348.181 40.0225 346.296 41.11C344.411 42.125 343.07 43.3937 342.273 44.9162V82H328.788V27.625Z" fill="#222E3F"/>
</svg>
